<svg width="128" height="128" viewBox="0 0 128 128" fill="none" xmlns="http://www.w3.org/2000/svg">
<g clip-path="url(#clip0_6555_4175)">
<rect width="128" height="128" fill="white"/>
<rect width="128" height="128" rx="64" fill="white"/>
<path d="M90.0724 42.7734C90.5446 42.8724 90.9901 43.0716 91.3787 43.3575C91.8169 43.7008 92.1527 44.1574 92.3496 44.6778C93.5831 47.7655 94.82 50.8515 96.0603 53.9358L100.193 64.2348C100.915 66.0377 101.631 67.8354 102.363 69.6332C102.519 70.0002 102.6 70.3949 102.6 70.7936C102.6 71.1923 102.519 71.587 102.363 71.954C100.269 77.1746 98.1731 82.3986 96.0755 87.626C95.9048 88.1157 95.6007 88.5481 95.1976 88.8747C94.7944 89.2012 94.308 89.409 93.7932 89.4746C93.1571 89.5931 92.4995 89.4892 91.9311 89.1803C91.3627 88.8714 90.9181 88.3763 90.6722 87.7784C89.4929 84.8837 88.339 81.9788 87.175 79.074C85.196 74.1547 83.222 69.232 81.2531 64.3059C79.4944 59.9216 77.7373 55.5406 75.982 51.163C75.3974 49.7106 74.8332 48.248 74.2232 46.8006C74.0554 46.4085 73.976 45.9844 73.9904 45.5582C74.0049 45.132 74.113 44.7142 74.3069 44.3344C74.5009 43.9545 74.7761 43.6219 75.113 43.3601C75.4499 43.0982 75.8402 42.9136 76.2564 42.8191C76.3073 42.8191 76.353 42.7887 76.4039 42.7734H90.0724Z" fill="white"/>
<path d="M90.0724 42.7734C90.5446 42.8724 90.9901 43.0716 91.3787 43.3575C91.8169 43.7008 92.1527 44.1574 92.3496 44.6778C93.5831 47.7655 94.82 50.8515 96.0603 53.9358L100.193 64.2348C100.915 66.0377 101.631 67.8354 102.363 69.6332C102.519 70.0002 102.6 70.3949 102.6 70.7936C102.6 71.1923 102.519 71.587 102.363 71.954C100.269 77.1746 98.1731 82.3986 96.0755 87.626C95.9048 88.1157 95.6007 88.5481 95.1976 88.8747C94.7944 89.2012 94.308 89.409 93.7932 89.4746C93.1571 89.5931 92.4995 89.4892 91.9311 89.1803C91.3627 88.8714 90.9181 88.3763 90.6722 87.7784C89.4929 84.8837 88.339 81.9788 87.175 79.074C85.196 74.1547 83.222 69.232 81.2531 64.3059C79.4944 59.9216 77.7373 55.5406 75.982 51.163C75.3974 49.7106 74.8332 48.248 74.2232 46.8006C74.0554 46.4085 73.976 45.9844 73.9904 45.5582C74.0049 45.132 74.113 44.7142 74.3069 44.3344C74.5009 43.9545 74.7761 43.6219 75.113 43.3601C75.4499 43.0982 75.8402 42.9136 76.2564 42.8191C76.3073 42.8191 76.353 42.7887 76.4039 42.7734H90.0724Z" fill="url(#paint0_linear_6555_4175)"/>
<path d="M41.5091 42.7734C41.6666 42.8191 41.8191 42.8547 41.9716 42.9055C42.3667 43.0286 42.7292 43.2384 43.0327 43.5196C43.3361 43.8008 43.5728 44.1462 43.7253 44.5306C45.0808 47.8789 46.4261 51.2273 47.7613 54.5757C49.0965 57.9241 50.4519 61.3097 51.8278 64.7325L53.8254 69.6992C53.975 70.0527 54.0521 70.4326 54.0521 70.8165C54.0521 71.2003 53.975 71.5802 53.8254 71.9337C53.0833 73.7924 52.3378 75.6545 51.5889 77.52L47.4868 87.7225C47.2714 88.2527 46.9033 88.7071 46.4291 89.0281C45.9549 89.349 45.396 89.5221 44.8232 89.5254C44.2191 89.5339 43.6269 89.3561 43.1275 89.0162C42.6282 88.6763 42.2458 88.1909 42.0326 87.626C40.7618 84.4216 39.4911 81.2221 38.1898 78.0227L32.9796 65.0423L27.683 51.8384C27.0171 50.1727 26.3512 48.5019 25.6497 46.8362C25.3537 46.1424 25.3393 45.3608 25.6097 44.6566C25.88 43.9524 26.4139 43.3809 27.0984 43.0629C27.348 42.9617 27.6045 42.8786 27.866 42.8141L41.5091 42.7734Z" fill="url(#paint1_linear_6555_4175)"/>
<path d="M78.2945 71.2532C77.9285 72.5126 77.3948 73.701 76.8865 74.93C75.5072 78.3799 74.1196 81.8315 72.7234 85.2849C72.4032 86.1025 72.0778 86.8643 71.7678 87.6616C71.5461 88.2208 71.1562 88.6976 70.6518 89.026C70.1473 89.3543 69.5533 89.5182 68.9517 89.4949C68.3774 89.4793 67.8208 89.2933 67.3527 88.9605C66.8847 88.6276 66.5265 88.1631 66.3238 87.626C64.3108 82.595 62.2945 77.564 60.2748 72.533C58.533 68.2062 56.7844 63.8692 55.0291 59.5221C53.3347 55.2663 51.6403 51.0106 49.946 46.7549C49.7817 46.3659 49.7051 45.9456 49.7215 45.5238C49.738 45.1019 49.8471 44.6888 50.0411 44.3138C50.2351 43.9387 50.5093 43.6109 50.8442 43.3535C51.1791 43.0961 51.5666 42.9154 51.9792 42.8242L52.1469 42.7734H65.8053L65.9324 42.8141C66.4136 42.9152 66.8611 43.137 67.2328 43.4586C67.6045 43.7802 67.8882 44.1911 68.0571 44.6525C68.8501 46.633 69.6464 48.6153 70.4462 50.5993C72.5302 55.7996 74.6143 60.9999 76.6984 66.2002C77.2474 67.5714 77.8573 68.9171 78.3047 70.3238L78.2945 71.2532Z" fill="white"/>
<path d="M78.2945 71.2532C77.9285 72.5126 77.3948 73.701 76.8865 74.93C75.5072 78.3799 74.1196 81.8315 72.7234 85.2849C72.4032 86.1025 72.0778 86.8643 71.7678 87.6616C71.5461 88.2208 71.1562 88.6976 70.6518 89.026C70.1473 89.3543 69.5533 89.5182 68.9517 89.4949C68.3774 89.4793 67.8208 89.2933 67.3527 88.9605C66.8847 88.6276 66.5265 88.1631 66.3238 87.626C64.3108 82.595 62.2945 77.564 60.2748 72.533C58.533 68.2062 56.7844 63.8692 55.0291 59.5221C53.3347 55.2663 51.6403 51.0106 49.946 46.7549C49.7817 46.3659 49.7051 45.9456 49.7215 45.5238C49.738 45.1019 49.8471 44.6888 50.0411 44.3138C50.2351 43.9387 50.5093 43.6109 50.8442 43.3535C51.1791 43.0961 51.5666 42.9154 51.9792 42.8242L52.1469 42.7734H65.8053L65.9324 42.8141C66.4136 42.9152 66.8611 43.137 67.2328 43.4586C67.6045 43.7802 67.8882 44.1911 68.0571 44.6525C68.8501 46.633 69.6464 48.6153 70.4462 50.5993C72.5302 55.7996 74.6143 60.9999 76.6984 66.2002C77.2474 67.5714 77.8573 68.9171 78.3047 70.3238L78.2945 71.2532Z" fill="url(#paint2_linear_6555_4175)"/>
</g>
<defs>
<linearGradient id="paint0_linear_6555_4175" x1="81.9007" y1="40.7315" x2="102.503" y2="89.3414" gradientUnits="userSpaceOnUse">
<stop stop-color="#DE35A0"/>
<stop offset="1" stop-color="#9120AC"/>
</linearGradient>
<linearGradient id="paint1_linear_6555_4175" x1="33.3355" y1="40.7314" x2="53.9276" y2="89.3563" gradientUnits="userSpaceOnUse">
<stop stop-color="#DE35A0"/>
<stop offset="1" stop-color="#9120AC"/>
</linearGradient>
<linearGradient id="paint2_linear_6555_4175" x1="57.6242" y1="40.7327" x2="78.22" y2="89.311" gradientUnits="userSpaceOnUse">
<stop stop-color="#DE35A0"/>
<stop offset="1" stop-color="#9120AC"/>
</linearGradient>
<clipPath id="clip0_6555_4175">
<rect width="128" height="128" fill="white"/>
</clipPath>
</defs>
</svg>
